HIERARCHY
ROOT Hips
{
	OFFSET 0.00000 0.00000 0.00000
	CHANNELS 6 Xposition Yposition Zposition Zrotation Yrotation Xrotation 
	JOINT LHipJoint
	{
		OFFSET 0 0 0
		CHANNELS 3 Zrotation Yrotation Xrotation
		JOINT LeftUpLeg
		{
			OFFSET 1.24777 -1.64261 0.71711
			CHANNELS 3 Zrotation Yrotation Xrotation
			JOINT LeftLeg
			{
				OFFSET 2.49329 -6.85026 0.00000
				CHANNELS 3 Zrotation Yrotation Xrotation
				JOINT LeftFoot
				{
					OFFSET 2.36770 -6.50520 0.00000
					CHANNELS 3 Zrotation Yrotation Xrotation
					JOINT LeftToeBase
					{
						OFFSET 0.14820 -0.40718 2.21395
						CHANNELS 3 Zrotation Yrotation Xrotation
						End Site
						{
							OFFSET 0.00000 -0.00000 1.13491
						}
					}
				}
			}
		}
	}
	JOINT RHipJoint
	{
		OFFSET 0 0 0
		CHANNELS 3 Zrotation Yrotation Xrotation
		JOINT RightUpLeg
		{
			OFFSET -1.18320 -1.64261 0.71711
			CHANNELS 3 Zrotation Yrotation Xrotation
			JOINT RightLeg
			{
				OFFSET -2.46559 -6.77417 0.00000
				CHANNELS 3 Zrotation Yrotation Xrotation
				JOINT RightFoot
				{
					OFFSET -2.38450 -6.55136 0.00000
					CHANNELS 3 Zrotation Yrotation Xrotation
					JOINT RightToeBase
					{
						OFFSET -0.17454 -0.47954 2.02925
						CHANNELS 3 Zrotation Yrotation Xrotation
						End Site
						{
							OFFSET -0.00000 -0.00000 1.05076
						}
					}
				}
			}
		}
	}
	JOINT LowerBack
	{
		OFFSET 0 0 0
		CHANNELS 3 Zrotation Yrotation Xrotation
		JOINT Spine
		{
			OFFSET -0.02305 1.98660 0.00319
			CHANNELS 3 Zrotation Yrotation Xrotation
			JOINT Spine1
			{
				OFFSET -0.00718 1.99033 -0.00533
				CHANNELS 3 Zrotation Yrotation Xrotation
				JOINT Neck
				{
					OFFSET 0 0 0
					CHANNELS 3 Zrotation Yrotation Xrotation
					JOINT Neck1
					{
						OFFSET 0.00095 1.61015 0.10698
						CHANNELS 3 Zrotation Yrotation Xrotation
						JOINT Head
						{
							OFFSET -0.01060 1.59924 0.01317
							CHANNELS 3 Zrotation Yrotation Xrotation
							End Site
							{
								OFFSET -0.00458 1.63304 -0.00592
							}
						}
					}
				}
				JOINT LeftShoulder
				{
					OFFSET 0 0 0
					CHANNELS 3 Zrotation Yrotation Xrotation
					JOINT LeftArm
					{
						OFFSET 3.05381 1.47088 -0.01697
						CHANNELS 3 Zrotation Yrotation Xrotation
						JOINT LeftForeArm
						{
							OFFSET 4.25106 -0.00000 0.00000
							CHANNELS 3 Zrotation Yrotation Xrotation
							JOINT LeftHand
							{
								OFFSET 3.27592 -0.00000 0.00000
								CHANNELS 3 Zrotation Yrotation Xrotation
								JOINT LeftFingerBase
								{
									OFFSET 0 0 0
									CHANNELS 3 Zrotation Yrotation Xrotation
									JOINT LeftHandIndex1
									{
										OFFSET 0.65781 -0.00000 0.00000
										CHANNELS 3 Zrotation Yrotation Xrotation
										End Site
										{
											OFFSET 0.53034 -0.00000 0.00000
										}
									}
								}
								JOINT LThumb
								{
									OFFSET 0 0 0
									CHANNELS 3 Zrotation Yrotation Xrotation
									End Site
									{
										OFFSET 0.53844 -0.00000 0.53844
									}
								}
							}
						}
					}
				}
				JOINT RightShoulder
				{
					OFFSET 0 0 0
					CHANNELS 3 Zrotation Yrotation Xrotation
					JOINT RightArm
					{
						OFFSET -2.83695 1.31619 -0.22674
						CHANNELS 3 Zrotation Yrotation Xrotation
						JOINT RightForeArm
						{
							OFFSET -4.46073 -0.00000 0.00000
							CHANNELS 3 Zrotation Yrotation Xrotation
							JOINT RightHand
							{
								OFFSET -3.44416 -0.00000 0.00000
								CHANNELS 3 Zrotation Yrotation Xrotation
								JOINT RightFingerBase
								{
									OFFSET 0 0 0
									CHANNELS 3 Zrotation Yrotation Xrotation
									JOINT RightHandIndex1
									{
										OFFSET -0.61651 -0.00000 0.00000
										CHANNELS 3 Zrotation Yrotation Xrotation
										End Site
										{
											OFFSET -0.49705 -0.00000 0.00000
										}
									}
								}
								JOINT RThumb
								{
									OFFSET 0 0 0
									CHANNELS 3 Zrotation Yrotation Xrotation
									End Site
									{
										OFFSET -0.50464 -0.00000 0.50464
									}
								}
							}
						}
					}
				}
			}
		}
	}
}
MOTION
Frames: 5
Frame Time: 0.0204082
0.00 0.00 0.00 2.5467 -22.8389 -1.5760 0.0000 0.0000 0.0000 -9.5856 16.0762 -15.6762 5.8174 14.2490 44.2443 1.4989 8.2243 -27.3924 0.9239 -6.1237 -17.1438 0.0000 0.0000 0.0000 -8.7094 6.7109 -45.5975 -7.6212 -15.8335 51.1866 -1.3742 -2.7423 21.4343 -0.1045 -2.0844 5.7390 -2.4669 -1.3144 4.6010 -0.0584 -1.8537 2.9386 1.3960 -0.9656 0.5175 1.1535 -7.1505 -6.5011 -0.0760 -9.8211 12.6585 -0.7953 -4.7773 4.8072 0.0000 -0.0000 0.0000 -80.7040 22.0469 44.2117 29.1322 -40.1379 -10.8458 -0.0000 0.0000 -25.1495 14.1645 4.7349 1.1935 -7.1250 0.0000 -0.0000 -10.3183 34.7139 2.6414 0.0000 -0.0000 0.0000 50.9535 19.7365 19.1549 -140.6229 47.6965 -102.0228 0.0000 -0.0000 -34.9757 38.4996 -12.3683 -9.6690 7.1250 -0.0000 -0.0000 49.1692 -35.7716 16.9735
0.00 0.00 0.00 -2.6374 -17.1776 0.2947 0.0000 0.0000 0.0000 -0.1601 13.6510 -17.6126 7.2477 15.5370 49.8051 1.7613 6.3990 -28.0588 1.5281 -7.8050 -22.1233 0.0000 0.0000 0.0000 -12.5792 22.4245 -25.5514 -3.3320 -11.2140 33.0051 -0.7765 0.8252 16.9672 -3.0576 10.7877 -31.5671 -0.7692 -3.0471 3.6596 2.0950 -4.0965 2.4585 2.6958 -2.0818 0.6848 1.1848 -7.4490 -6.3192 -0.5677 -10.2209 14.5357 -1.0166 -4.9828 5.3273 -0.0000 0.0000 0.0000 -80.2984 24.3770 44.4096 28.7227 -39.7731 -10.5828 -0.0000 0.0000 -22.1230 11.0030 3.8828 0.7543 -7.1250 0.0000 -0.0000 -12.7470 33.7241 3.6008 -0.0000 0.0000 0.0000 66.7837 21.7911 -5.6148 -135.3089 50.6162 -98.0003 0.0000 -0.0000 -54.0852 -23.9731 -18.0188 7.8318 7.1250 -0.0000 -0.0000 4.0364 -49.5327 -0.4518
0.00 0.00 0.00 -6.1109 -12.4347 1.8427 0.0000 0.0000 0.0000 6.9971 12.4149 -20.4749 8.2116 16.2727 53.3214 2.2199 3.0848 -29.3874 2.1032 -9.0778 -26.0391 0.0000 0.0000 0.0000 -8.7182 22.2595 -19.0520 -2.7750 -10.3216 30.0246 -0.0239 0.0812 2.9490 -6.2873 14.7011 -46.1241 0.1823 -3.8427 3.0057 3.2861 -5.1294 1.7410 3.3962 -2.5917 0.3946 0.4798 -7.8720 -6.1796 0.4313 -10.8748 14.9000 -0.6536 -5.2660 5.5102 0.0000 -0.0000 0.0000 -79.5446 24.7245 44.4197 28.7401 -39.7887 -10.5940 -0.0000 0.0000 -22.0158 11.9526 3.5105 0.7426 -7.1250 0.0000 -0.0000 -11.9273 33.3903 3.4587 0.0000 -0.0000 0.0000 72.4224 20.8520 -20.2231 -120.8495 56.0793 -86.3648 0.0000 -0.0000 -61.1213 -40.6269 -22.4347 18.1289 7.1250 -0.0000 -0.0000 -13.5069 -58.0128 4.3531
0.00 0.00 0.00 -9.8854 1.0454 6.0609 0.0000 0.0000 0.0000 15.8710 16.0692 -42.5179 12.6350 18.6464 67.9878 1.6861 -0.3384 -24.4706 2.1355 -9.1429 -26.2433 0.0000 0.0000 0.0000 -1.0747 -3.4176 -33.7744 -6.7086 -15.0815 47.7635 -1.2468 3.5436 -20.2338 -7.0791 15.3982 -49.1730 1.7637 -1.7310 7.1977 2.3516 -2.1076 1.6056 1.6263 -1.0566 -2.3497 1.2517 -6.7014 -7.7123 2.4301 -9.3330 7.0671 0.0569 -4.4760 3.7281 -0.0000 0.0000 0.0000 -69.6662 17.9630 49.8206 29.7593 -40.6862 -11.2524 -0.0000 0.0000 -21.2171 27.7714 -1.0411 -0.5482 -7.1250 0.0000 -0.0000 0.9363 28.8026 -0.3694 -0.0000 0.0000 0.0000 77.9802 -2.1296 15.9965 -96.3746 59.8459 -65.5177 0.0000 -0.0000 -33.7658 -63.5291 -44.5765 54.6456 7.1250 -0.0000 -0.0000 -116.9973 80.0331 -126.3311
0.00 0.00 0.00 -11.5092 7.6598 6.2837 0.0000 0.0000 0.0000 11.0678 19.1096 -49.8430 12.8747 18.7365 68.7360 1.4391 1.1948 -23.1335 1.4847 -7.6982 -21.8010 0.0000 0.0000 0.0000 0.8946 -9.4925 -27.9329 -4.3601 -12.6248 37.9797 -0.6889 2.2971 -15.0653 -7.1363 15.4456 -49.3881 2.8649 0.0942 6.7456 2.3205 0.3973 1.2604 0.7485 0.1842 -2.4788 3.6749 -5.3193 -8.0295 2.3021 -7.7346 6.6842 -0.3068 -3.6302 3.5344 -0.0000 0.0000 0.0000 -67.3203 17.6891 53.1375 32.9063 -43.2579 -13.3578 -0.0000 0.0000 -22.2642 24.5536 -0.4426 -0.2022 -7.1250 0.0000 -0.0000 -1.5787 29.4915 0.5972 -0.0000 0.0000 0.0000 54.0490 1.1701 41.3889 -115.8629 57.3152 -82.1961 0.0000 0.0000 0.4508 -20.0452 -18.3218 6.5430 7.1250 -0.0000 -0.0000 7.9260 -49.2334 -0.8322
